<?xml version="1.0" encoding="utf-8"?>
<!-- Generator: Adobe Illustrator 21.1.0, SVG Export Plug-In . SVG Version: 6.00 Build 0)  -->
<svg version="1.1" xmlns="http://www.w3.org/2000/svg" xmlns:xlink="http://www.w3.org/1999/xlink" x="0px" y="0px"
	 viewBox="0 0 67.1 13.8" style="enable-background:new 0 0 67.1 13.8;" xml:space="preserve">
<g id="Layer_2">
</g>
<g id="Layer_1">
	<title>karte</title>
	<g>
		<path d="M1.5,13.5c-0.6,0-1.1-0.3-1.3-0.9c-0.5-1.4,0.1-3.4,0.9-5.7C1.3,6.1,1.7,5,1.9,4.2C1.7,3.9,1.6,3.6,1.5,3.4
			C1.4,2.7,1.7,1.8,2.3,1.5c0.6-0.3,1.6,0.1,2,0.6C4.6,2.6,4.8,3,4.8,3.6c0.6,0.8,1.7,1.9,3.1,1.9c3.8,0,5.8-3.8,5.8-3.8
			C14.1,1,14.8,0.7,15.5,1c0.7,0.3,1.1,1,0.9,1.7c-0.8,3.2-1.5,7.3-1.3,8.3c0.4,0.5,0.4,1.2,0,1.7c-0.5,0.6-1.4,0.7-2,0.2
			c-0.5-0.4-1.4-1.1-0.6-6C11.4,7.8,9.8,8.3,8,8.3c-1.5,0-2.9-0.6-3.9-1.4C4,7.2,3.9,7.5,3.8,7.9C3.4,9,2.7,11.1,2.9,11.7
			c0.2,0.8-0.2,1.6-0.9,1.8C1.8,13.5,1.7,13.5,1.5,13.5L1.5,13.5z"/>
		<path d="M17.7,13.5c-0.1,0-0.2,0-0.2,0c-0.8-0.1-1.4-0.9-1.2-1.7l0.8-5c0.1-0.8,0.9-1.4,1.7-1.2c0.8,0.1,1.4,0.9,1.2,1.7l-0.8,5
			C19,13,18.4,13.5,17.7,13.5L17.7,13.5z M20,3.1c-0.1,0-0.2,0-0.2,0L19,3c-0.8-0.1-1.4-0.9-1.3-1.7c0.1-0.8,0.9-1.4,1.7-1.3
			l0.7,0.1C21,0.3,21.6,1,21.5,1.8C21.3,2.6,20.7,3.1,20,3.1L20,3.1z"/>
		<path d="M35.2,13.6c-0.1,0-0.3,0-0.4-0.1c-0.7-0.2-1.1-1-0.9-1.7c0.6-2,0.7-4.3,0.4-4.8C32.9,7,30.7,9.6,30,11.7
			c-0.1,0.2-0.1,0.4-0.2,0.6c-0.2,0.7-1,1.1-1.7,0.9c-0.7-0.2-1.1-0.9-1-1.6c0.1-0.2,0.1-0.4,0.2-0.7c0.7-2.4,0.3-3.3,0.1-3.5
			c-0.1-0.1-0.2-0.3-0.8-0.3h0c-1.2,0-3.1,2.9-4.1,5.5c-0.3,0.7-1,1-1.7,0.8c-0.7-0.2-1.1-0.9-1-1.6c0,0,0.6-3,0.4-4.9
			c-0.1-0.8,0.5-1.4,1.2-1.5c0.6-0.1,1.3,0.3,1.4,1c1.1-1.2,2.4-2.1,3.9-2c1.6,0.1,2.4,0.9,2.9,1.5c0.1,0.2,0.2,0.4,0.3,0.6
			c1.3-1.3,2.8-2.2,4.5-2.1c0.8,0.1,1.5,0.5,1.9,1.1c1.3,1.9,0.4,5.9,0,7.1C36.3,13.2,35.8,13.6,35.2,13.6L35.2,13.6z"/>
		<path d="M39,13.5c-0.1,0-0.2,0-0.2,0c-0.8-0.1-1.4-0.9-1.2-1.7l0.8-5c0.1-0.8,0.9-1.4,1.7-1.2c0.8,0.1,1.4,0.9,1.2,1.7l-0.8,5
			C40.4,13,39.7,13.5,39,13.5L39,13.5z M41.3,3.1c-0.1,0-0.2,0-0.2,0L40.4,3c-0.8-0.1-1.4-0.9-1.3-1.7C39.3,0.5,40-0.1,40.8,0
			l0.7,0.1c0.8,0.1,1.4,0.9,1.3,1.7C42.7,2.6,42.1,3.1,41.3,3.1L41.3,3.1z"/>
		<path d="M49.9,10.9c0.7,0.5,0.8,1.4,0.3,2.1c-0.3,0.4-0.8,0.6-1.2,0.6c-0.3,0-0.6-0.1-0.9-0.3c-0.8-0.6-1.5-1.2-2.1-2.2
			c-0.4,0.4-0.8,0.7-1.1,1c-1,0.8-1.7,1.2-2.4,1.3c0,0-0.1,0-0.1,0c-0.4,0-0.9-0.2-1.1-0.5c-0.3-0.4-0.4-0.9-0.3-1.3
			c0,0,0.4-1.6,0.8-3.6c0.5-2.6,0.8-4.6,0.8-5.8c0-2,3-2,3,0c0,1.6-0.4,3.9-0.8,5.9c0-0.1,0.1-0.1,0.2-0.2C46.1,6.8,47,5.6,47,5.6
			c0.5-0.7,1.5-0.8,2.1-0.3c0.7,0.5,0.8,1.5,0.3,2.1c0,0-0.5,0.6-1.1,1.4C48.6,9.9,49.1,10.4,49.9,10.9L49.9,10.9z"/>
		<path d="M50.9,13.7c-0.2,0-0.3,0-0.5-0.1c-0.7-0.2-1.1-1-1-1.7l0.2-1c0.8-3.4,1.6-6.3,5.2-6.3c2.1,0,3.7,0.9,3.9,1
			c0.7,0.4,0.9,1.2,0.6,1.8c-0.3,0.6-1.1,0.8-1.8,0.4c0,0-1-0.6-2.4-0.6c-1.6,0-2,1.1-2.9,4.5l-0.3,1C51.9,13.3,51.5,13.7,50.9,13.7
			L50.9,13.7z"/>
		<path d="M60.9,13.8c-0.2,0-0.3,0-0.5,0c-1.5-0.2-2.6-1-3.1-2.3c-0.3-0.8-0.4-1.8-0.1-2.8c0.2-0.9,0.7-1.8,1.3-2.5
			c0.5-0.6,1.1-1.1,1.7-1.4c0.8-0.4,1.6-0.5,2.4-0.4c0.4,0.1,0.7,0.3,0.9,0.6c0.3-0.2,0.6-0.3,0.9-0.3c1.2,0,2.1,0.5,2.6,1.4
			c0.4,0.7,0.4,1.5,0.1,2.4c-0.2,0.7-0.6,1.4-1.1,2.1c-0.7,0.9-1.5,1.7-2.3,2.3C62.7,13.4,61.8,13.8,60.9,13.8L60.9,13.8z M62.9,9.8
			c0.5-0.5,0.9-1,1.1-1.6c0.1-0.3,0.2-0.6,0.3-0.8c-0.5,0-0.9-0.2-1.2-0.6c-0.3,0.2-0.7,0.4-1.1,0.3c-0.1,0-0.1,0-0.1,0
			c-0.4,0-0.9,0.3-1.3,0.8c-0.3,0.4-0.6,0.9-0.7,1.4c-0.1,0.4-0.1,0.8,0,1.1c0.1,0.3,0.4,0.5,0.9,0.5C61.3,11,62.1,10.6,62.9,9.8z"
			/>
	</g>
</g>
</svg>
