<?xml version="1.0" encoding="utf-8"?>
<!-- Generator: Adobe Illustrator 21.1.0, SVG Export Plug-In . SVG Version: 6.00 Build 0)  -->
<svg version="1.1" xmlns="http://www.w3.org/2000/svg" xmlns:xlink="http://www.w3.org/1999/xlink" x="0px" y="0px"
	 viewBox="0 0 135.2 28.6" style="enable-background:new 0 0 135.2 28.6;" xml:space="preserve">
<g id="Layer_2">
</g>
<g id="Layer_1">
	<title>karte</title>
	<g>
		<path d="M1.5,17.6c-0.4,0-0.8-0.3-1-0.7c-0.5-1.3,0.1-3.2,0.9-5.4c0.3-0.8,0.7-2.1,0.8-2.9C2.1,8.3,2,8,1.9,7.7
			C1.8,7.2,2,6.6,2.4,6.4C2.8,6.2,3.6,6.5,4,6.9c0.3,0.3,0.4,0.7,0.4,1.3c0.9,1.4,2.2,2.2,3.5,2.2c4.1,0,6.2-4,6.2-4.1
			c0.2-0.5,0.8-0.6,1.3-0.4c0.5,0.2,0.8,0.7,0.7,1.3c-0.8,3.4-1.6,7.7-1.3,8.6c0.3,0.4,0.4,0.9,0.1,1.3c-0.3,0.4-1,0.5-1.4,0.2
			c-1-0.7-1-2.6-0.3-6.6c-1.5,1.2-3.3,1.8-5.1,1.8c-1.5,0-2.9-0.6-4.1-1.7l-0.1,0.2c-0.1,0.4-0.3,0.8-0.4,1.3
			c-0.8,2.3-1.1,3.5-0.9,4c0.2,0.6-0.1,1.1-0.7,1.3C1.8,17.6,1.7,17.6,1.5,17.6L1.5,17.6z"/>
		<path d="M17.7,17.6c-0.1,0-0.1,0-0.2,0c-0.6-0.1-1-0.7-0.9-1.3l0.8-5c0.1-0.6,0.7-1,1.3-0.9c0.6,0.1,1,0.7,0.9,1.3l-0.8,5
			C18.7,17.2,18.2,17.6,17.7,17.6L17.7,17.6z M20,7.2c-0.1,0-0.1,0-0.2,0l-0.7-0.1c-0.6-0.1-1-0.6-0.9-1.3c0.1-0.6,0.6-1,1.3-0.9
			L20.1,5c0.6,0.1,1,0.6,0.9,1.3C21,6.8,20.5,7.2,20,7.2L20,7.2z"/>
		<path d="M35.2,17.7c-0.1,0-0.2,0-0.3,0c-0.5-0.1-0.8-0.7-0.7-1.2c0.7-2.4,0.8-5,0.1-5.3c-1.4-0.2-3.9,2.4-4.8,4.9
			c0,0.2-0.1,0.4-0.2,0.6c-0.2,0.5-0.7,0.8-1.2,0.7c-0.5-0.1-0.8-0.7-0.7-1.2c0-0.2,0.1-0.4,0.2-0.6c0.5-1.7,0.5-3.2,0.1-3.8
			c-0.2-0.3-0.6-0.5-1.1-0.5h-0.1c-1.3,0-3.2,2.6-4.5,5.8c-0.2,0.5-0.7,0.7-1.2,0.6c-0.5-0.1-0.8-0.6-0.7-1.1c0,0,0.6-3.1,0.4-5
			c-0.1-0.5,0.3-1,0.9-1.1c0.6-0.1,1.2,0.5,1,1.3l-0.2,0.7c1.4-2.1,3-3.1,4.4-3c1.1,0.1,2,0.5,2.6,1.3c0.2,0.2,0.3,0.5,0.4,0.7
			l0.1,0.4c1.5-1.7,3.1-2.6,4.6-2.5c0.7,0.1,1.3,0.4,1.7,1c0.8,1.2,0.8,3.8,0,6.7C36,17.4,35.6,17.7,35.2,17.7L35.2,17.7z"/>
		<path d="M39,17.6c-0.1,0-0.1,0-0.2,0c-0.6-0.1-1-0.7-0.9-1.3l0.8-5c0.1-0.6,0.7-1,1.3-0.9c0.6,0.1,1,0.7,0.9,1.3l-0.8,5
			C40,17.2,39.6,17.6,39,17.6L39,17.6z M41.3,7.2c-0.1,0-0.1,0-0.2,0l-0.7-0.1c-0.6-0.1-1-0.6-0.9-1.3c0.1-0.6,0.6-1,1.3-0.9L41.5,5
			c0.6,0.1,1,0.6,0.9,1.3C42.3,6.8,41.9,7.2,41.3,7.2L41.3,7.2z"/>
		<path d="M49.7,15.8c0.5,0.4,0.6,1,0.2,1.5c-0.2,0.3-0.5,0.5-0.9,0.5c-0.2,0-0.4-0.1-0.6-0.2c-0.9-0.6-1.7-1.3-2.2-2.5
			c-0.5,0.6-1,1-1.5,1.4c-0.9,0.8-1.6,1.1-2.2,1.2c0,0-0.1,0-0.1,0c-0.3,0-0.6-0.1-0.8-0.4c-0.2-0.3-0.3-0.6-0.2-1
			c0,0,0.4-1.6,0.8-3.6C42.7,10,43,8,43,6.7c0-1.5,2.2-1.4,2.2,0c0,1.5-0.8,4.9-1.6,7.8L45,13c0.1-0.1,0.2-0.2,0.2-0.2
			c1.1-1.2,2.1-2.5,2.1-2.5c0.4-0.5,1.1-0.6,1.5-0.2c0.5,0.4,0.6,1.1,0.2,1.5c0,0-0.5,0.7-1.2,1.5C48.2,14.6,48.9,15.1,49.7,15.8
			L49.7,15.8z"/>
		<path d="M50.6,17.7c-0.5-0.2-0.8-0.7-0.7-1.2l0.2-1c0.8-3.4,1.5-6,4.8-6c2,0,3.5,0.8,3.7,0.9c0.5,0.3,0.7,0.9,0.4,1.3
			c-0.2,0.4-0.7,0.5-1.2,0.3c0.3,0.2-1-0.7-2.6-0.7c-1.9,0-2.4,1.4-3.3,4.8l-0.3,1c-0.1,0.4-0.4,0.6-0.8,0.6
			C50.8,17.8,50.7,17.8,50.6,17.7z"/>
		<path d="M60.9,17.8c-0.1,0-0.3,0-0.4,0c-1.4-0.2-2.4-0.9-2.8-2.1c-0.3-0.8-0.3-1.6-0.1-2.6c0.2-0.8,0.6-1.6,1.2-2.3
			c0.5-0.6,1-1,1.6-1.3c0.7-0.3,1.4-0.5,2.1-0.3c0.4,0.1,0.7,0.3,0.9,0.7c0.2-0.3,0.6-0.5,0.9-0.5c1.1,0,1.9,0.4,2.2,1.2
			c0.3,0.6,0.3,1.3,0.1,2.1c-0.2,0.6-0.5,1.3-1,2c-0.6,0.9-1.4,1.6-2.2,2.2C62.5,17.6,61.7,17.8,60.9,17.8L60.9,17.8z M60.7,15.8
			c0.7,0.1,1.6-0.4,2.5-1.3c0.5-0.5,0.9-1.1,1.2-1.7c0.2-0.5,0.4-0.9,0.3-1.5c-0.7,0.3-1.3,0-1.6-0.7c-0.3,0.4-0.7,0.6-1.1,0.5
			c-0.1,0-0.1,0-0.2,0c-0.5,0-1.1,0.4-1.6,0.9c-0.4,0.4-0.6,1-0.8,1.5c-0.1,0.5-0.1,1,0,1.3C59.6,15.5,60.1,15.7,60.7,15.8
			L60.7,15.8z"/>
		<path d="M75.3,18.5c-1,0-1.5-0.2-1.8-0.7c-0.4-0.6-0.4-1.3,0.4-5.5c0.4-2.1,0.9-4.4,1-6c0-0.7,0.5-1.1,1.2-1.1
			c0.6,0,1.1,0.6,1.1,1.2c-0.1,1.8-0.6,4.2-1,6.3c-0.2,1.1-0.5,2.6-0.6,3.4c0.8,0,2.4-0.3,3.6-0.5c1.6-0.2,3.2-0.5,4.6-0.6
			c0.7,0,1.2,0.5,1.2,1.1c0,0.6-0.4,1.2-1.1,1.2c-1.3,0.1-2.9,0.3-4.4,0.6C77.6,18.3,76.2,18.5,75.3,18.5L75.3,18.5z"/>
		<path d="M85.6,17.6c-0.1,0-0.1,0-0.2,0c-0.6-0.1-1-0.7-0.9-1.3l0.8-5c0.1-0.6,0.7-1,1.3-0.9c0.6,0.1,1,0.7,0.9,1.3l-0.8,5
			C86.6,17.2,86.1,17.6,85.6,17.6L85.6,17.6z M87.9,7.2c-0.1,0-0.1,0-0.2,0L87,7.1c-0.6-0.1-1-0.6-0.9-1.3c0.1-0.6,0.6-1,1.3-0.9
			L88.1,5c0.6,0.1,1,0.6,0.9,1.3C88.9,6.8,88.4,7.2,87.9,7.2L87.9,7.2z"/>
		<path d="M96.8,12.5c0.3,0.1,0.6,0.6,0.5,1l-0.8,10.3c-0.2,2-1.7,3.9-3.8,4.4c-0.3,0.1-0.6,0.1-0.9,0.1c-1.4,0-2.5-0.8-3-2.3
			c-0.2-0.6,0.2-1.3,0.7-1.5c0.6-0.2,1.1,0.1,1.3,0.6c0.2,0.7,0.8,1,1.6,0.9c1.1-0.2,1.9-1.1,1.9-2c0-0.2,0.2-3.1,0.6-8.1
			c-2.6,1.8-5.1,2.2-6.2,0.9c-0.6-0.7-0.8-1.7-0.7-2.6c0.2-1.4,1.7-2.9,3.5-3.6c1.4-0.5,2.4-0.4,3.2,0.3c0.4,0.4,0.4,1.2-0.1,1.7
			c-0.5,0.4-1.1,0.3-1.7-0.1c-1.1-0.3-2.6,1.1-2.9,1.7c-0.1,0.5,0.2,1,0.7,1.1c1,0.1,3.1-1,4.8-2.8C96,12.4,96.4,12.4,96.8,12.5
			L96.8,12.5z"/>
		<path d="M99,17.7c-0.1,0-0.3,0-0.4-0.1c-0.4-0.2-0.6-0.7-0.5-1.1c1.1-3.1,2.4-8.1,1.9-9.5c-0.2-0.5,0.1-1,0.6-1.2
			c0.5-0.2,1,0.1,1.2,0.6c0.4,1.1,0.2,3.3-0.6,6.3c2.1-2,5.2-2.3,6.4-0.7c1.4,1.6,0.9,4.5,0.8,4.8c-0.1,0.5-0.6,0.8-1.1,0.7
			c-0.5-0.1-0.8-0.6-0.7-1.1c0.2-1.3,0.1-2.7-0.4-3.3c-0.2-0.3-0.6-0.4-1-0.4c-2.2,0-4.7,3.4-5.4,4.6C99.6,17.5,99.3,17.7,99,17.7
			L99,17.7z"/>
		<path d="M118.1,11.7c0.1,0.6-0.3,1.2-0.9,1.2c-0.6,0.1-1.6,0.1-2.8,0.1c-0.3,1.2-0.5,2.5-0.6,3.5c-0.1,0.6-0.5,1-1,1
			c0,0-0.1,0-0.1,0c-0.5-0.1-0.9-0.6-0.9-1.2c0.1-1,0.3-2.1,0.5-3.3c-1.2,0-2.3-0.1-3.1-0.2c-0.5-0.1-0.9-0.7-0.8-1.3
			c0.1-0.6,0.6-1,1.1-0.9c0.7,0.1,2,0.2,3.2,0.2c0.4-1.9,0.9-3.5,0.9-3.6c0.2-0.6,0.7-0.9,1.2-0.8c0.5,0.1,0.8,0.8,0.7,1.4
			c0,0-0.4,1.3-0.8,3c0.9,0,1.6,0,2.1-0.1C117.6,10.7,118,11.1,118.1,11.7L118.1,11.7z"/>
	</g>
</g>
</svg>
