<?xml version="1.0" encoding="utf-8"?>
<!-- Generator: Adobe Illustrator 21.1.0, SVG Export Plug-In . SVG Version: 6.00 Build 0)  -->
<svg version="1.1" xmlns="http://www.w3.org/2000/svg" xmlns:xlink="http://www.w3.org/1999/xlink" x="0px" y="0px"
	 viewBox="0 0 135.2 28.6" style="enable-background:new 0 0 135.2 28.6;" xml:space="preserve">
<g id="Layer_2">
</g>
<g id="Layer_1">
	<title>karte</title>
	<g>
		<path d="M1.5,18c-0.6,0-1.1-0.3-1.3-0.9c-0.5-1.4,0.1-3.4,0.9-5.7c0.3-0.8,0.6-1.9,0.8-2.7C1.7,8.4,1.6,8.1,1.5,7.8
			C1.4,7.2,1.7,6.3,2.3,6c0.6-0.3,1.6,0.1,2,0.6C4.6,7,4.8,7.5,4.8,8.1C5.4,8.9,6.5,10,7.9,10c3.8,0,5.8-3.8,5.8-3.8
			c0.3-0.6,1.1-0.9,1.8-0.6c0.7,0.3,1.1,1,0.9,1.7c-0.8,3.2-1.5,7.3-1.3,8.3c0.4,0.5,0.4,1.2,0,1.7c-0.5,0.6-1.4,0.7-2,0.2
			c-0.5-0.4-1.4-1.1-0.6-6c-1.2,0.8-2.7,1.3-4.5,1.3c-1.5,0-2.9-0.6-3.9-1.4c-0.1,0.3-0.2,0.6-0.3,1c-0.4,1.1-1.1,3.2-0.9,3.8
			c0.2,0.8-0.2,1.6-0.9,1.8C1.8,18,1.7,18,1.5,18L1.5,18z"/>
		<path d="M17.7,18c-0.1,0-0.2,0-0.2,0c-0.8-0.1-1.4-0.9-1.2-1.7l0.8-5c0.1-0.8,0.9-1.4,1.7-1.2c0.8,0.1,1.4,0.9,1.2,1.7l-0.8,5
			C19,17.5,18.4,18,17.7,18L17.7,18z M20,7.6c-0.1,0-0.2,0-0.2,0L19,7.5c-0.8-0.1-1.4-0.9-1.3-1.7c0.1-0.8,0.9-1.4,1.7-1.3l0.7,0.1
			c0.8,0.1,1.4,0.9,1.3,1.7C21.3,7.1,20.7,7.6,20,7.6L20,7.6z"/>
		<path d="M35.2,18.1c-0.1,0-0.3,0-0.4-0.1c-0.7-0.2-1.1-1-0.9-1.7c0.6-2,0.7-4.3,0.4-4.8c-1.3-0.1-3.5,2.5-4.3,4.7
			c-0.1,0.2-0.1,0.4-0.2,0.6c-0.2,0.7-1,1.1-1.7,0.9c-0.7-0.2-1.1-0.9-1-1.6c0.1-0.2,0.1-0.4,0.2-0.7c0.7-2.4,0.3-3.3,0.1-3.5
			c-0.1-0.1-0.2-0.3-0.8-0.3h0c-1.2,0-3.1,2.9-4.1,5.5c-0.3,0.7-1,1-1.7,0.8c-0.7-0.2-1.1-0.9-1-1.6c0,0,0.6-3,0.4-4.9
			c-0.1-0.8,0.5-1.4,1.2-1.5c0.6-0.1,1.3,0.3,1.4,1c1.1-1.2,2.4-2.1,3.9-2c1.6,0.1,2.4,0.9,2.9,1.5c0.1,0.2,0.2,0.4,0.3,0.6
			c1.3-1.3,2.8-2.2,4.5-2.1c0.8,0.1,1.5,0.5,1.9,1.1c1.3,1.9,0.4,5.9,0,7.1C36.3,17.7,35.8,18.1,35.2,18.1L35.2,18.1z"/>
		<path d="M39,18c-0.1,0-0.2,0-0.2,0c-0.8-0.1-1.4-0.9-1.2-1.7l0.8-5c0.1-0.8,0.9-1.4,1.7-1.2c0.8,0.1,1.4,0.9,1.2,1.7l-0.8,5
			C40.4,17.5,39.7,18,39,18L39,18z M41.3,7.6c-0.1,0-0.2,0-0.2,0l-0.7-0.1c-0.8-0.1-1.4-0.9-1.3-1.7c0.1-0.8,0.9-1.4,1.7-1.3
			l0.7,0.1c0.8,0.1,1.4,0.9,1.3,1.7C42.7,7.1,42.1,7.6,41.3,7.6L41.3,7.6z"/>
		<path d="M49.9,15.4c0.7,0.5,0.8,1.4,0.3,2.1c-0.3,0.4-0.8,0.6-1.2,0.6c-0.3,0-0.6-0.1-0.9-0.3c-0.8-0.6-1.5-1.2-2.1-2.2
			c-0.4,0.4-0.8,0.7-1.1,1c-1,0.8-1.7,1.2-2.4,1.3c0,0-0.1,0-0.1,0c-0.4,0-0.9-0.2-1.1-0.5c-0.3-0.4-0.4-0.9-0.3-1.3
			c0,0,0.4-1.6,0.8-3.6c0.5-2.6,0.8-4.6,0.8-5.8c0-2,3-2,3,0c0,1.6-0.4,3.9-0.8,5.9c0-0.1,0.1-0.1,0.2-0.2c1.1-1.2,2.1-2.4,2.1-2.4
			c0.5-0.7,1.5-0.8,2.1-0.3c0.7,0.5,0.8,1.5,0.3,2.1c0,0-0.5,0.6-1.1,1.4C48.6,14.4,49.1,14.9,49.9,15.4L49.9,15.4z"/>
		<path d="M50.9,18.2c-0.2,0-0.3,0-0.5-0.1c-0.7-0.2-1.1-1-1-1.7l0.2-1c0.8-3.4,1.6-6.3,5.2-6.3c2.1,0,3.7,0.9,3.9,1
			c0.7,0.4,0.9,1.2,0.6,1.8c-0.3,0.6-1.1,0.8-1.8,0.4c0,0-1-0.6-2.4-0.6c-1.6,0-2,1.1-2.9,4.5l-0.3,1C51.9,17.8,51.5,18.2,50.9,18.2
			L50.9,18.2z"/>
		<path d="M60.9,18.2c-0.2,0-0.3,0-0.5,0c-1.5-0.2-2.6-1-3.1-2.3c-0.3-0.8-0.4-1.8-0.1-2.8c0.2-0.9,0.7-1.8,1.3-2.5
			c0.5-0.6,1.1-1.1,1.7-1.4c0.8-0.4,1.6-0.5,2.4-0.4c0.4,0.1,0.7,0.3,0.9,0.6c0.3-0.2,0.6-0.3,0.9-0.3c1.2,0,2.1,0.5,2.6,1.4
			c0.4,0.7,0.4,1.5,0.1,2.4c-0.2,0.7-0.6,1.4-1.1,2.1c-0.7,0.9-1.5,1.7-2.3,2.3C62.7,17.9,61.8,18.2,60.9,18.2L60.9,18.2z
			 M62.9,14.3c0.5-0.5,0.9-1,1.1-1.6c0.1-0.3,0.2-0.6,0.3-0.8c-0.5,0-0.9-0.2-1.2-0.6c-0.3,0.2-0.7,0.4-1.1,0.3c-0.1,0-0.1,0-0.1,0
			c-0.4,0-0.9,0.3-1.3,0.8c-0.3,0.4-0.6,0.9-0.7,1.4c-0.1,0.4-0.1,0.8,0,1.1c0.1,0.3,0.4,0.5,0.9,0.5C61.3,15.5,62.1,15.1,62.9,14.3
			z"/>
		<path d="M85,14.6c0.7,0.1,1.2,0.8,1,1.6c-0.1,0.6-0.7,1.1-1.3,1.1c-0.1,0-0.2,0-0.3,0c-3.2-0.6-6.4-1.9-8-3.4
			c-0.1,1.1-0.3,2.1-0.5,3c-0.1,0.6-0.7,1.1-1.3,1.1c-0.1,0-0.1,0-0.2,0c-0.7-0.1-1.2-0.8-1-1.5c0.8-3.7,1.1-8.7,1-10.3
			c-0.2,0-0.4-0.1-0.5-0.3c-0.5-0.5-0.6-1.3-0.1-1.9c1.5-1.8,4.9-2,7.2-1.3c1.9,0.6,3.1,1.9,3.2,3.6c0.1,2.5-2.7,4.2-4.8,5.4
			c-0.2,0.1-0.5,0.3-0.7,0.4C79.4,12.7,81.6,13.9,85,14.6L85,14.6z M76.8,10.1c0.3-0.2,0.7-0.5,1.2-0.7c2.3-1.3,3.4-2.3,3.4-2.9
			c0-0.6-0.5-1-1.4-1.3c-1.1-0.3-2.3-0.3-3.2-0.1C76.9,5.2,77,5.4,77,5.6C77,6.4,77,8.1,76.8,10.1L76.8,10.1z"/>
		<path d="M86.9,18.2c-0.6,0-1.2-0.2-1.7-0.5c-0.4-0.3-0.8-0.7-1.1-1.2c-0.3-0.5-0.5-1.2-0.6-1.9c-0.2-0.2-0.4-0.4-0.5-0.7
			c-0.1-0.6,0.2-1.1,0.6-1.3c0.1-0.6,0.4-1.1,0.7-1.7c0.4-0.6,0.8-1.1,1.4-1.5c0.6-0.4,1.4-0.6,2.1-0.6c0.6,0,1,0.1,1.4,0.3
			c0.6,0.3,0.9,0.8,1,1.4c0.1,0.9-0.6,1.9-2,2.9c-0.7,0.4-1.4,0.8-2.1,1.1c0,0.3,0.1,0.6,0.2,0.8c0.2,0.3,0.4,0.4,0.6,0.4
			c1.4,0,2.4-0.4,2.4-0.4c0.6-0.3,1.4,0,1.6,0.6c0.3,0.6,0,1.4-0.6,1.6C90.2,17.6,88.8,18.2,86.9,18.2L86.9,18.2z"/>
		<path d="M94.5,28.6c-1.6,0-2.9-1-3.4-2.6c-0.2-0.8,0.2-1.6,1-1.9c0.8-0.3,1.6,0.1,1.9,0.9c0.2,0.6,0.5,0.7,1.1,0.6
			c0.8-0.2,1.6-0.9,1.6-1.6c0-0.1,0-0.3,0.6-7.3c-2,1.2-4.6,1.9-6,0.3c-0.6-0.8-0.9-1.8-0.8-2.9c0.3-1.7,2.1-3.2,3.8-3.8
			c1.5-0.6,2.8-0.4,3.7,0.4c0.4,0.4,0.5,1,0.3,1.6l0.1,0.1c0.4-0.2,0.9-0.3,1.3-0.1c0.5,0.2,0.9,0.8,0.8,1.4c0,0-0.8,9.6-0.8,10.2
			c0,2.4-2.1,4.3-4.2,4.7C95.1,28.6,94.8,28.6,94.5,28.6L94.5,28.6z M93.7,15c0.6,0,1.9-0.6,3.3-1.7l0-0.1c-0.4,0.1-0.9-0.1-1.2-0.3
			c0,0-0.1,0-0.1,0c-0.7,0-2.1,0.9-2.3,1.5C93.3,14.6,93.5,15,93.7,15L93.7,15z"/>
		<path d="M109.9,18.2c-0.1,0-0.1,0-0.2,0c-1-0.1-1.6-0.5-2-0.9c-0.1-0.1-0.1-0.1-0.2-0.2c-0.9,0.6-1.9,0.9-3,0.9
			c-0.1,0-0.2,0-0.3,0c-1.7-0.1-2.5-1-2.9-1.6c-0.3-0.4-0.5-0.9-0.5-1.4c0-0.4,0-0.7,0-1.1c0.1-0.6,0.3-1.2,0.6-1.9
			c0.5-1.1,1.1-2,1.1-2.1c0.4-0.6,1.4-0.6,2.1,0c0.8,0.6,1,1.5,0.6,2.1c0,0-0.5,0.7-0.9,1.5c-0.3,0.7-0.5,1.1-0.5,1.4
			c1-0.1,1.8-0.6,2.5-1.7c0.3-0.4,0.5-0.8,0.6-1.2c0.2-0.6,0.3-1.1,0.3-1.1c0.3-0.7,1.1-0.9,1.9-0.5c0.8,0.4,1.3,1.3,1.2,2
			c0,0-0.1,0.5-0.4,1.2c0,0.1-0.1,0.2-0.1,0.4c-0.1,0.4-0.1,0.8-0.2,1c0,0,0,0,0.1,0c0.7-0.3,1.7,0.2,2.2,1c0.5,0.8,0.3,1.6-0.4,1.9
			C110.9,18.1,110.4,18.2,109.9,18.2L109.9,18.2z"/>
		<path d="M112.5,18c0,0-0.1,0-0.1,0c-0.5,0-1-0.3-1.3-0.8c-0.4-0.6-0.5-1.5-0.3-2.9c0.1-0.9,0.3-1.9,0.6-3.2
			c0.5-2.2,1.1-4.1,1.1-4.2c0.2-0.8,1.1-1.2,1.9-1c0.8,0.2,1.2,1.1,1,1.9c0,0-0.5,1.8-1,3.7c-0.6,2.6-0.8,3.7-0.8,4.2
			c0.2,0.3,0.4,0.7,0.3,1.1C114,17.4,113.3,18,112.5,18L112.5,18z"/>
		<path d="M118.9,18.1c0,0-0.1,0-0.2,0c-1.2-0.1-2.2-0.5-2.9-1.4c-0.8-1-0.9-2.2-0.2-3.7c0.8-1.8,2.8-3.7,5-3.4
			c0.5,0.1,1,0.4,1.4,0.9c0.3-0.5,1.1-0.7,1.8-0.2c0.7,0.4,1.1,1.2,0.9,1.8c0,0.2-0.2,0.7-0.5,1.3c-0.2,0.8-0.4,1.7-0.3,2.1
			c0.1,0,0.6-0.1,0.7-0.1c0.6-0.2,1.5,0.3,1.9,1c0.4,0.7,0.1,1.5-0.6,1.6c-1.6,0.3-3,0-3.9-1c0,0-0.1-0.1-0.1-0.1l0,0
			C120.9,17.7,119.9,18.1,118.9,18.1L118.9,18.1z M118,15.4c1,0.1,2.3-1.1,3.3-3.2c-0.1,0-0.1,0-0.2,0c-0.8-0.1-1.9,0.8-2.7,2
			C118.3,14.4,118,15.1,118,15.4L118,15.4z"/>
		<path d="M126.6,18.2c-0.2,0-0.3,0-0.5-0.1c-0.7-0.2-1.1-1-1-1.7l0.2-1c0.8-3.4,1.6-6.3,5.2-6.3c2.1,0,3.7,0.9,3.9,1
			c0.7,0.4,0.9,1.2,0.6,1.8c-0.3,0.6-1.1,0.8-1.8,0.4c0,0-1-0.6-2.4-0.6c-1.6,0-2,1.1-2.9,4.5l-0.3,1
			C127.6,17.8,127.2,18.2,126.6,18.2L126.6,18.2z"/>
	</g>
</g>
</svg>
